<?xml version="1.0" encoding="UTF-8"?>
<svg id="Layer_1" data-name="Layer 1" xmlns="http://www.w3.org/2000/svg" viewBox="0 0 344.17 58.44">
  <defs>
    <style>
      .cls-1 {
        fill: #ffd917;
      }
    </style>
  </defs>
  <g>
    <path d="M72.96,11.79h29.48v38.32l-11.79,2.95v-17.69h-5.9v14.74h-11.79V11.79ZM84.75,20.64v5.9h5.9v-5.9h-5.9Z"/>
    <path d="M117.18,35.38v14.74l-11.79,2.95V11.79h29.48v23.58h-17.69ZM117.18,20.64v5.9h5.9v-5.9h-5.9Z"/>
    <path d="M149.6,35.38v14.74l-11.79,2.95V11.79h29.48v23.58h-17.69ZM149.6,20.64v5.9h5.9v-5.9h-5.9Z"/>
    <path d="M170.24,50.12V11.79h29.48v38.32h-29.48ZM182.03,41.27h5.9v-20.64h-5.9v20.64Z"/>
    <path d="M214.46,8.84h-11.79V0h11.79v8.84ZM214.46,11.79v38.32h-11.79V11.79h11.79Z"/>
    <path d="M246.89,11.79v38.32l-11.79,2.95V20.64h-5.9v29.48h-11.79V11.79h29.48Z"/>
    <path d="M270.47,20.64v29.48l-11.79,2.95V20.64h-8.84v-8.84h29.48v8.84h-8.84Z"/>
    <path d="M294.05,41.27h17.69v8.84h-29.48V11.79h29.48v8.84h-17.69v20.64ZM297,26.53h14.74v8.84h-14.74v-8.84Z"/>
    <path d="M326.48,35.38v14.74h-11.79v-19.16h11.79l-11.79-2.95V11.79h11.79v14.74h5.9v-14.74h11.79v16.21l-11.79,2.95h11.79v19.16h-11.79v-14.74h-5.9Z"/>
  </g>
  <g>
    <rect x="0" y="3.47" width="54.96" height="54.96" rx="8.8" ry="8.8"/>
    <g>
      <path class="cls-1" d="M45.07,29.06c-1.05,0-1.89.85-1.89,1.89,0,4.19-1.63,8.13-4.6,11.09-2.96,2.96-6.9,4.6-11.09,4.6s-8.13-1.63-11.09-4.6c-2.96-2.96-4.6-6.9-4.6-11.09s1.63-8.13,4.6-11.09c2.96-2.96,6.9-4.6,11.09-4.6,1.05,0,1.89-.85,1.89-1.89s-.85-1.89-1.89-1.89c-2.63,0-5.18.52-7.58,1.53-2.32.98-4.4,2.39-6.19,4.17-1.79,1.79-3.19,3.87-4.17,6.19-1.02,2.4-1.53,4.95-1.53,7.58s.52,5.18,1.53,7.58c.98,2.32,2.39,4.4,4.17,6.19,1.79,1.79,3.87,3.19,6.19,4.17,2.4,1.02,4.95,1.53,7.58,1.53s5.18-.52,7.58-1.53c2.32-.98,4.4-2.39,6.19-4.17,1.79-1.79,3.19-3.87,4.17-6.19,1.02-2.4,1.53-4.95,1.53-7.58,0-1.05-.85-1.89-1.89-1.89Z"/>
      <path class="cls-1" d="M23.12,27.36c-1.54-1.75-4.23-1.91-5.95-.33-.02.01-.03.03-.05.05-.99.92-1.05,2.46-.14,3.46,2.44,2.69,4.7,5.55,6.77,8.54.98,1.41,2.64,2.19,4.35,2.02.02,0,.03,0,.05,0,1.53-.15,2.89-1.03,3.64-2.36,3.79-6.65,9.26-15.5,13.78-21.67.61-.84.19-2.03-.82-2.28-1.4-.35-2.93.06-4.01,1.17-4.51,4.6-9.37,10.62-13.51,16.42-1.2-1.61-2.58-3.26-4.11-5Z"/>
    </g>
  </g>
</svg>