<?xml version="1.0" encoding="UTF-8"?>
<svg id="Layer_1" data-name="Layer 1" xmlns="http://www.w3.org/2000/svg" viewBox="0 0 54.96 54.96">
  <defs>
    <style>
      .cls-1 {
        fill: #ffd917;
      }
    </style>
  </defs>
  <rect x="0" width="54.96" height="54.96" rx="8.8" ry="8.8"/>
  <g>
    <path class="cls-1" d="M45.07,25.59c-1.05,0-1.89.85-1.89,1.89,0,4.19-1.63,8.13-4.6,11.09-2.96,2.96-6.9,4.6-11.09,4.6s-8.13-1.63-11.09-4.6c-2.96-2.96-4.6-6.9-4.6-11.09s1.63-8.13,4.6-11.09c2.96-2.96,6.9-4.6,11.09-4.6,1.05,0,1.89-.85,1.89-1.89s-.85-1.89-1.89-1.89c-2.63,0-5.18.52-7.58,1.53-2.32.98-4.4,2.39-6.19,4.17-1.79,1.79-3.19,3.87-4.17,6.19-1.02,2.4-1.53,4.95-1.53,7.58s.52,5.18,1.53,7.58c.98,2.32,2.39,4.4,4.17,6.19,1.79,1.79,3.87,3.19,6.19,4.17,2.4,1.02,4.95,1.53,7.58,1.53s5.18-.52,7.58-1.53c2.32-.98,4.4-2.39,6.19-4.17,1.79-1.79,3.19-3.87,4.17-6.19,1.02-2.4,1.53-4.95,1.53-7.58,0-1.05-.85-1.89-1.89-1.89Z"/>
    <path class="cls-1" d="M23.12,23.89c-1.54-1.75-4.23-1.91-5.95-.33-.02.01-.03.03-.05.05-.99.92-1.05,2.46-.14,3.46,2.44,2.69,4.7,5.55,6.77,8.54.98,1.41,2.64,2.19,4.35,2.02.02,0,.03,0,.05,0,1.53-.15,2.89-1.03,3.64-2.36,3.79-6.65,9.26-15.5,13.78-21.67.61-.84.19-2.03-.82-2.28-1.4-.35-2.93.06-4.01,1.17-4.51,4.6-9.37,10.62-13.51,16.42-1.2-1.61-2.58-3.26-4.11-5Z"/>
  </g>
</svg>